<svg xmlns="http://www.w3.org/2000/svg" viewBox="0 0 96.91 96.91"><defs><style>.cls-1{fill:#ffd520;}.cls-2{fill:#010202;}</style></defs><title>Asset 7</title><g id="Layer_2" data-name="Layer 2"><g id="Layer_1-2" data-name="Layer 1"><rect class="cls-1" width="96.91" height="96.91" rx="8.86" ry="8.86"/><path class="cls-2" d="M38.47,71.89V38.95h2.21V35.47h4.18L46,25h5L52,35.47h4.18v3.48h2.21V71.89Zm2-2H56.4V41H54.19V37.5H42.72V41H40.51Zm6.4-34.39H50l-.88-8.41H47.79Z"/><path class="cls-2" d="M48.46,59.5A5.54,5.54,0,1,1,54,54,5.55,5.55,0,0,1,48.46,59.5Zm0-9.05A3.51,3.51,0,1,0,52,54,3.51,3.51,0,0,0,48.46,50.45Z"/></g></g></svg>