<svg xmlns="http://www.w3.org/2000/svg" viewBox="0 0 96.91 96.91"><defs><style>.cls-1{fill:#ffd520;}</style></defs><title>Asset 2</title><g id="Layer_2" data-name="Layer 2"><g id="Layer_1-2" data-name="Layer 1"><rect class="cls-1" width="96.91" height="96.91" rx="8.86" ry="8.86"/><path d="M40.82,64a1,1,0,0,1-1-1,1,1,0,0,1,.24-.66l.37-.44-.49-.3a16.22,16.22,0,0,1-7.75-13.87,1,1,0,0,1,1-1h1L34,46a15.82,15.82,0,0,1,0-6.79,1,1,0,0,1,.88-.77,21.69,21.69,0,0,1,2.19-.1,21.42,21.42,0,0,1,5,.56l.38.1.18-.35a15.51,15.51,0,0,1,5.25-5.63,1,1,0,0,1,1.17.08A22.8,22.8,0,0,1,54,38.78l.19.33.37-.1A22.95,22.95,0,0,1,62,38.49a1,1,0,0,1,.88.77,15.8,15.8,0,0,1,0,6.79l-.15.62h1a1,1,0,0,1,1,1A16.22,16.22,0,0,1,57,61.56l-.49.3.37.44a1,1,0,0,1,.24.66,1,1,0,0,1-1,1ZM34.3,49.27a14.25,14.25,0,0,0,28.32,0l.06-.56H34.23Zm25.51-8.83a19.7,19.7,0,0,0-4.29.44L55,41l.13.5a7.53,7.53,0,0,1,.27,1.94A10,10,0,0,1,55.08,46l-.17.63h5.65l.11-.35a13.07,13.07,0,0,0,.42-5.42L61,40.47H59.81ZM49.48,46.66H52.7l.12-.32a8.06,8.06,0,0,0,.55-2.89c0-2.26-1.64-4.62-3-6.21l-.88-1Zm-2.91-9.84a9.75,9.75,0,0,0-3,6.63,8.07,8.07,0,0,0,.55,2.89l.12.32h3.21V35.94ZM37.1,40.45H35.87l-.05.43a13.06,13.06,0,0,0,.42,5.42l.11.35H42L41.83,46a9.92,9.92,0,0,1-.14-4.58l.1-.48-.48-.11A19.86,19.86,0,0,0,37.1,40.45Z"/></g></g></svg>