<svg xmlns="http://www.w3.org/2000/svg" viewBox="0 0 96.91 96.91"><defs><style>.cls-1{fill:#ffd520;}</style></defs><title>Asset 8</title><g id="Layer_2" data-name="Layer 2"><g id="Layer_1-2" data-name="Layer 1"><rect class="cls-1" width="96.91" height="96.91" rx="8.86" ry="8.86"/><path d="M42.54,69.79a1.32,1.32,0,0,1-1.32-1.23L39.84,47.29l-.62.21a8.59,8.59,0,1,1,5.83-8.72l0,.47h7.42V32.08a1.32,1.32,0,0,1,.77-1.2l7.88-3.64a1.31,1.31,0,0,1,.55-.12,1.32,1.32,0,0,1,.55,2.52l-7.12,3.28v6.33h6.19a1.32,1.32,0,0,1,1.32,1.41L60.83,68.55a1.32,1.32,0,0,1-1.32,1.23Zm1.24-2.64H58.28l1.17-18H42.6ZM55.14,46.53h4.48l.3-4.64H55.14Zm-12.71,0H52.51V41.89H42.13Zm-6-13.13a6,6,0,1,0,0,11.92,5.87,5.87,0,0,0,2.9-.75l.27-.15-.25-3.75a1.32,1.32,0,0,1,1.32-1.41h1.74l-.06-.56A6,6,0,0,0,36.48,33.4Z"/></g></g></svg>