<svg xmlns="http://www.w3.org/2000/svg" viewBox="0 0 96.91 96.91"><defs><style>.cls-1{fill:#ffd520;}</style></defs><title>Asset 6</title><g id="Layer_2" data-name="Layer 2"><g id="Layer_1-2" data-name="Layer 1"><g id="Layer_2-2" data-name="Layer 2"><g id="Layer_1-2-2" data-name="Layer 1-2"><rect class="cls-1" width="96.91" height="96.91" rx="8.86" ry="8.86"/><path d="M61.2,36.27a1,1,0,0,0-.56-.11L36,38.4a1.1,1.1,0,0,0-1,1.12v11.4a11.78,11.78,0,0,0,11.74,9.84,11.54,11.54,0,0,0,1.9-.11.86.86,0,0,0,.56-.22L61.53,49.34a1.21,1.21,0,0,0,.34-.78V37.27a1,1,0,0,0-.67-1M47.34,58.52a9.68,9.68,0,0,1-6.26-1.68,10.66,10.66,0,0,1-3.8-6.15V45a10.83,10.83,0,0,0,2.57,2.46,12.07,12.07,0,0,0,7.49,2.24ZM48,47.34a9.34,9.34,0,0,1-6.82-1.79,9.19,9.19,0,0,1-3.69-5l20-1.79ZM59.64,48,49.58,57.07V49l10.07-9.17Z"/></g></g></g></g></svg>