<svg xmlns="http://www.w3.org/2000/svg" viewBox="0 0 96.91 96.91"><defs><style>.cls-1{fill:#ffd520;}.cls-2{stroke:#000;stroke-miterlimit:10;stroke-width:0.5px;}</style></defs><title>Asset 5</title><g id="Layer_2" data-name="Layer 2"><g id="Layer_1-2" data-name="Layer 1"><rect class="cls-1" width="96.91" height="96.91" rx="8.86" ry="8.86"/><path class="cls-2" d="M69.3,45.72a7.26,7.26,0,0,0-2-4.47c-1.83-2.07-5-4-9.28-5.72A32.07,32.07,0,0,0,46.22,33.2,23.3,23.3,0,0,0,34.73,36a13.94,13.94,0,0,0-3.79,3.08,13.25,13.25,0,0,0-3.32,9s0,6.22,0,6.25a9.51,9.51,0,0,0,5.44,8.33,12,12,0,0,0,5.07,1.05,13.46,13.46,0,0,0,7.71-2.35c5.66-4.06,9.85-5.28,14-4.08,2.74.78,5,.64,6.68-.43a6.41,6.41,0,0,0,2.77-4.58S69.31,45.76,69.3,45.72Zm-1.82,1c-.3,1.83-1.32,4-4.49,4a9.88,9.88,0,0,1-2.69-.43A13,13,0,0,0,58.67,50l7-7.83A5.33,5.33,0,0,1,67.48,46.73Zm-3.12-5.78-7.95,8.87c-3.19.09-6.46,1.34-10.42,4l13.9-15.55A24.25,24.25,0,0,1,64.36,40.95Zm-7-3.77.85.35L41.47,56.23a12.32,12.32,0,0,1-3.33.46,10.44,10.44,0,0,1-3.59-.61L52.91,35.77A31.28,31.28,0,0,1,57.35,37.18ZM46.22,35a28.64,28.64,0,0,1,4.67.39l-18,19.89a7.34,7.34,0,0,1-3.05-4.07L44.31,35C44.93,35,45.57,35,46.22,35Zm-14,5.33a13.11,13.11,0,0,1,3.32-2.72,18.4,18.4,0,0,1,6.07-2.18L29.43,49S29.15,43.78,32.22,40.3Zm33.36,15c-1.25.79-3,.87-5.24.23a13.11,13.11,0,0,0-7.64.14,27.88,27.88,0,0,0-7.9,4.21A11.57,11.57,0,0,1,33.8,61a7.64,7.64,0,0,1-4.42-6.75,8.85,8.85,0,0,0,1.84,2,11.19,11.19,0,0,0,6.91,2.2,13.44,13.44,0,0,0,7.69-2.36c4.35-3.12,7.72-4.52,10.94-4.52a10.85,10.85,0,0,1,3,.43,11.65,11.65,0,0,0,3.18.49h0a6,6,0,0,0,4.55-1.8V52A4.75,4.75,0,0,1,65.58,55.34Z"/></g></g></svg>