<svg xmlns="http://www.w3.org/2000/svg" viewBox="0 0 96.91 96.91"><defs><style>.cls-1{fill:#ffd520;}.cls-2{fill:#231f20;}</style></defs><title>Asset 1</title><g id="Layer_2" data-name="Layer 2"><g id="Layer_1-2" data-name="Layer 1"><rect class="cls-1" width="96.91" height="96.91" rx="8.86" ry="8.86"/><path class="cls-2" d="M48.46,42.25A1.25,1.25,0,0,1,47.21,41V38.09a1.25,1.25,0,1,1,2.5,0V41a1.25,1.25,0,0,1-1.22,1.28h0Z"/><path class="cls-2" d="M56.38,41.73a1.25,1.25,0,0,1-.88-.37L53,38.88a1.25,1.25,0,0,1,1.77-1.77l2.48,2.48a1.25,1.25,0,0,1-.88,2.14Z"/><path class="cls-2" d="M40.51,41.73a1.25,1.25,0,0,1-.88-2.14l2.48-2.48a1.25,1.25,0,0,1,1.77,1.77l-2.5,2.49A1.25,1.25,0,0,1,40.51,41.73Z"/><path class="cls-2" d="M66.69,55.83A1.14,1.14,0,0,0,65.55,57v0a5.66,5.66,0,0,1-5.65,5.65H37A5.66,5.66,0,0,1,31.37,57V53.09H29.09V57A7.94,7.94,0,0,0,37,64.91H59.9A7.94,7.94,0,0,0,67.83,57a1.14,1.14,0,0,0-1.13-1.15h0Z"/><path class="cls-2" d="M30.16,46.45a1.14,1.14,0,0,0,1.34-.9h0C32.8,39,38.93,34.28,46.07,34.28h4.55c7.72,0,14.07,5.4,14.76,12.55h0a7.68,7.68,0,0,1,0,.85h2.28a9.72,9.72,0,0,0,0-1.1,15.7,15.7,0,0,0-5.49-10.39A17.67,17.67,0,0,0,50.63,32H46.08c-8.23,0-15.29,5.51-16.8,13.1a1.14,1.14,0,0,0,.85,1.37h0Z"/><path class="cls-2" d="M66.06,54.35H30.44a1.12,1.12,0,1,1,0-2.19H66.06a1.12,1.12,0,1,1,0,2.19Z"/><path class="cls-2" d="M66.62,48.8H38.71a1.1,1.1,0,0,1,0-2.19H66.62a1.1,1.1,0,0,1,0,2.19Z"/></g></g></svg>