<svg xmlns="http://www.w3.org/2000/svg" viewBox="0 0 96.91 96.91"><defs><style>.cls-1{fill:#ffd520;}.cls-2{fill:#231f20;stroke:#231f20;stroke-miterlimit:10;stroke-width:0.25px;}</style></defs><title>Asset 3</title><g id="Layer_2" data-name="Layer 2"><g id="Layer_1-2" data-name="Layer 1"><g id="Layer_2-2" data-name="Layer 2"><g id="Layer_1-2-2" data-name="Layer 1-2"><rect class="cls-1" width="96.91" height="96.91" rx="8.86" ry="8.86"/><path class="cls-2" d="M59.88,69.18H37L35.12,42.65h9.27V47h8.13V42.65h9.27ZM38.73,67.35H58.18l1.65-22.88H54.35v4.35H42.57V44.47H37.09Z"/><polygon class="cls-2" points="40.34 42.65 40.34 33.21 42.13 33.21 42.13 42.65 43.95 42.65 43.95 37.37 43.95 31.38 43.95 29.56 45.74 29.56 45.74 31.38 45.74 47.01 47.56 47.01 47.56 33.21 49.35 33.21 49.35 47.01 51.18 47.01 51.18 31.38 51.18 31.38 51.18 29.56 52.96 29.56 52.96 31.38 52.96 42.65 54.79 42.65 54.79 33.21 56.58 33.21 56.58 42.65 58.4 42.65 58.4 31.38 54.79 31.38 54.79 27.74 49.35 27.74 49.35 31.38 47.56 31.38 47.56 27.74 42.13 27.74 42.13 31.38 38.51 31.38 38.51 42.65 40.34 42.65"/></g></g></g></g></svg>